<?xml version="1.0" encoding="UTF-8"?>
<!DOCTYPE svg PUBLIC "-//W3C//DTD SVG 1.1//EN" "http://www.w3.org/Graphics/SVG/1.1/DTD/svg11.dtd">
<!-- Creator: CorelDRAW -->
<svg xmlns="http://www.w3.org/2000/svg" xml:space="preserve" width="2048px" height="2048px" style="shape-rendering:geometricPrecision; text-rendering:geometricPrecision; image-rendering:optimizeQuality; fill-rule:evenodd; clip-rule:evenodd"
viewBox="0 0 2048 2048"
 xmlns:xlink="http://www.w3.org/1999/xlink">
 <defs>
  <style type="text/css">
   <![CDATA[
    .fil0 {fill:#9E9E9E}
    .fil1 {fill:#FFFFFE}
    .fil2 {fill:#FFFFFE;fill-rule:nonzero}
   ]]>
  </style>
 </defs>
 <g id="Layer_x0020_1">
  <metadata id="CorelCorpID_0Corel-Layer"/>
  <circle class="fil0" cx="1024" cy="1024" r="1024"/>
  <g id="_374918952">
   <path id="_374919432" class="fil1" d="M921.552 1351.84c-12.8799,-0.0614174 -23.2689,10.4894 -23.2689,23.3256 0,12.9236 10.5024,23.2642 23.3811,23.3244l381.612 1.82244c12.8799,0.0625985 23.2701,-10.4882 23.2701,-23.3244 0,-12.9248 -10.5012,-23.2642 -23.3811,-23.3256l-381.613 -1.82244z"/>
   <path id="_374919360" class="fil2" d="M911.426 1328.89c26.8217,0 51.1063,10.8744 68.6871,28.454 17.5795,17.5807 28.4528,41.8654 28.4528,68.6859 0,26.8217 -10.8744,51.1087 -28.4528,68.6871 -17.5807,17.5795 -41.8654,28.454 -68.6871,28.454 -26.8205,0 -51.1075,-10.8756 -68.6859,-28.454 -17.5795,-17.5784 -28.454,-41.8654 -28.454,-68.6871 0,-26.8205 10.8744,-51.1052 28.454,-68.6859 17.5784,-17.5784 41.8654,-28.454 68.6859,-28.454z"/>
   <path id="_374920104" class="fil2" d="M1303.67 1328.89c26.8217,0 51.1087,10.8756 68.6871,28.454 17.5795,17.5807 28.454,41.8654 28.454,68.6859 0,26.8217 -10.8756,51.1087 -28.454,68.6871 -17.5784,17.5784 -41.8654,28.454 -68.6871,28.454 -26.8205,0 -51.1052,-10.8744 -68.6859,-28.454 -17.5784,-17.5784 -28.454,-41.8654 -28.454,-68.6871 0,-26.8205 10.8744,-51.1052 28.454,-68.6859 17.5807,-17.5795 41.8654,-28.454 68.6859,-28.454z"/>
   <path id="_374919096" class="fil1" d="M1092.86 1067.56l0 -64.0489c-19.9914,-5.74252 -34.6607,-14.3539 -44.0044,-25.9429 -9.29056,-11.589 -13.989,-25.6299 -13.989,-42.124 0,-16.7043 5.27244,-30.7465 15.8162,-42.1264 10.5969,-11.3787 24.6378,-17.9032 42.1772,-19.6784l0 -15.1382 22.1327 0 0 15.1382c16.2343,1.98307 29.1272,7.46457 38.7319,16.5992 9.55276,9.13465 15.6591,21.3496 18.3225,36.6437l-38.68 5.06339c-2.34921,-12.0579 -8.4567,-20.2004 -18.3744,-24.4807l0 59.7685c24.4819,6.62835 41.1851,15.2421 50.0067,25.7858 8.87481,10.5437 13.311,24.0638 13.311,40.6111 0,18.4264 -5.58544,33.9827 -16.7032,46.6146 -11.1709,12.6839 -26.726,20.4095 -46.6146,23.2807l0 28.6051 -22.1327 0 0 -27.8752c-17.6433,-2.14016 -31.9973,-8.71654 -43.0122,-19.7303 -11.0138,-10.9618 -18.0095,-26.5181 -21.0886,-46.6146l39.9331 -4.28032c1.61693,8.14371 4.69725,15.1902 9.18662,21.0886 4.4374,5.89843 9.44765,10.1787 14.9811,12.841zm339.572 214.536l150.737 -562.557 0.0283465 0.00826772c3.33425,-12.4429 -4.05,-25.2331 -16.4929,-28.5662 -2.16969,-0.581103 -4.34764,-0.836221 -6.48662,-0.796064l-868.255 0 -36.1878 -135.059c-2.21339,-10.5791 -11.5937,-18.5256 -22.8307,-18.5256l-145.623 0c-12.8811,0 -23.3244,10.4433 -23.3244,23.3244 0,12.8823 10.4433,23.3256 23.3244,23.3256l127.758 0 187.579 700.061 -0.0248032 0.0236221c2.82638,10.5496 12.4512,17.4614 22.8992,17.2878l584.069 0c11.237,0 20.6185,-7.94646 22.8307,-18.5268z"/>
   <path id="_374918880" class="fil1" d="M580.832 524.826l0 70.2048 -93.5079 0c-12.8811,0 -23.3244,-15.7169 -23.3244,-35.1024 0,-19.3854 10.4433,-35.1024 23.3244,-35.1024l93.5079 0z"/>
   <path id="_374918832" class="fil1" d="M1092.86 959.929l0 -52.93c-6.05434,2.03504 -10.8047,5.53229 -14.4071,10.3866 -3.54922,4.90748 -5.32323,10.3358 -5.32323,16.2343 0,5.37756 1.61693,10.4398 4.85433,15.0343 3.28819,4.64528 8.24764,8.40355 14.876,11.2748z"/>
   <path id="_374918760" class="fil1" d="M1133.68 1059.11c4.80237,-5.68937 7.20355,-12.3189 7.20355,-19.9925 0,-6.83741 -2.03504,-12.6839 -6.05552,-17.6433 -4.01929,-4.95827 -10.6476,-8.76851 -19.8354,-11.3787l0 59.6115c7.67363,-1.40906 13.8851,-4.95827 18.6874,-10.5969z"/>
  </g>
 </g>
</svg>
